<svg width="83" height="104" viewBox="0 0 83 104" fill="none" xmlns="http://www.w3.org/2000/svg">
<g opacity="0.1">
<path fill-rule="evenodd" clip-rule="evenodd" d="M71.2275 41.8624C74.2918 34.4316 76.8719 26.626 82.2145 20.4479C82.5313 20.079 82.4898 19.5234 82.1179 19.2032C81.7449 18.8863 81.1859 18.9244 80.8658 19.292C75.3991 25.6149 72.7188 33.582 69.5843 41.1858C69.3967 41.6345 69.6162 42.1528 70.0702 42.3385C70.5228 42.5276 71.0399 42.3111 71.2275 41.8624Z" fill="black"/>
<path fill-rule="evenodd" clip-rule="evenodd" d="M59.9842 38.3167C58.7126 35.145 58.0675 31.9686 58.4469 28.5746C58.5015 28.0898 58.1498 27.6528 57.6637 27.5944C57.1763 27.5392 56.7369 27.8874 56.6837 28.3689C56.2706 32.0595 56.955 35.5113 58.3363 38.9592C58.5172 39.4136 59.0334 39.6383 59.4891 39.4587C59.9433 39.2822 60.1664 38.7679 59.9842 38.3167Z" fill="black"/>
<path fill-rule="evenodd" clip-rule="evenodd" d="M33.7958 35.7194C30.5012 33.2233 28.4128 29.9982 27.5621 25.9579C27.4615 25.4815 26.991 25.1724 26.5112 25.2711C26.0326 25.3665 25.7247 25.8332 25.8252 26.3096C26.7678 30.7814 29.0769 34.3555 32.7247 37.1193C33.1146 37.4163 33.6729 37.3402 33.9677 36.9553C34.2641 36.5673 34.187 36.0131 33.7958 35.7194Z" fill="black"/>
<path fill-rule="evenodd" clip-rule="evenodd" d="M14.5712 70.7326C15.0833 71.6615 15.6794 72.5471 16.3611 73.3676C16.6645 73.7332 17.3398 74.4304 18.0219 74.7604C18.7475 75.1147 19.4783 75.1049 20.0621 74.582C20.8369 73.8871 21.0561 73.1788 20.9931 72.5432C20.9331 71.9315 20.5821 71.3362 20.0021 70.8228C18.8933 69.842 16.887 69.1543 15.6607 68.9737C15.2138 68.0208 14.8581 67.0275 14.594 66.009C12.6269 58.4226 17.5498 50.2944 26.4912 46.0197C29.6214 44.5241 34.7327 45.1896 40.0047 46.5396C48.2137 48.6405 56.7877 52.5347 59.3307 53.5947C59.9592 53.8551 60.3588 53.9406 60.4467 53.9367C60.8762 53.9243 61.0773 53.6883 61.187 53.5116C61.3429 53.2545 61.3745 53.0138 61.3498 52.8006C61.3147 52.5116 61.1663 52.2281 60.8557 52.0031C60.6836 51.8804 60.4227 51.7651 60.1366 51.6627C59.9374 51.5937 59.7073 51.5506 59.5815 51.457C58.7772 50.8536 58.0143 50.2058 57.2427 49.5621C54.6457 47.4058 52.3503 45.0257 50.1137 42.5021C43.0067 34.4845 35.339 26.4251 31.4778 16.2732C31.3045 15.8178 30.7924 15.5833 30.3339 15.7544C29.8766 15.9221 29.6458 16.4297 29.8182 16.8884C33.755 27.243 41.5374 35.4862 48.7849 43.6634C50.6876 45.8096 52.6327 47.8552 54.7607 49.752C50.3939 47.9649 44.2848 45.6593 38.5847 44.3864C33.5154 43.2539 28.7572 42.9769 25.7143 44.4306C15.9192 49.1132 10.7199 58.1315 12.8759 66.4396C13.1069 67.3284 13.4003 68.2034 13.7578 69.0502C6.23701 70.0742 0.942973 76.4182 1.43469 84.0113C1.46555 84.4987 1.88828 84.8687 2.37655 84.8411C2.86609 84.8103 3.23682 84.3943 3.20596 83.9069C2.76301 77.0646 7.68489 71.389 14.5712 70.7326ZM16.8337 71.0546C17.1108 71.4668 17.4094 71.8645 17.7276 72.251C17.8991 72.4565 18.2378 72.8282 18.6143 73.0747C18.7029 73.1314 18.8523 73.1925 18.9219 73.2193C19.1219 73.0357 19.2445 72.879 19.2268 72.7062C19.206 72.4907 19.0291 72.317 18.8261 72.1371C18.317 71.6849 17.556 71.3095 16.8337 71.0546Z" fill="black"/>
</g>
</svg>
