<svg width="50" height="42" viewBox="0 0 50 42" fill="none" xmlns="http://www.w3.org/2000/svg">
<path d="M29.0383 5.03094C29.696 4.61614 30.3442 4.31313 30.9776 4.15424C34.4689 3.0744 37.7815 1.91171 40.9159 0.666175L42.5362 0L43.4479 0.507292C45.9857 1.94179 48.149 3.1964 49.9373 4.27113L46.6406 5.21195L44.7171 5.8055C41.6941 6.77185 39.5862 7.62528 38.3923 8.3658C35.7064 10.0324 15.9232 29.9973 12.8985 32.8696L11.9896 33.6834C9.79743 35.5502 6.15966 38.0918 1.07685 41.3069L0 34.0182L1.95066 32.2954C3.32274 31.0663 4.82321 29.692 6.35478 28.2626C6.50014 28.3914 6.66415 28.4572 6.84005 28.4533C7.43107 28.4396 14.7581 21.7421 14.9102 20.8195C14.9379 20.6504 14.8989 20.4075 14.8073 20.1141L16.2144 18.6779C17.3224 17.5345 18.2579 16.5347 18.9382 15.7522C20.5665 13.8802 22.2604 11.7302 23.9577 9.78668C24.0946 9.79462 24.2026 9.78156 24.284 9.74808C24.7636 9.55061 27.7109 6.36045 28.7012 5.25564L29.0383 5.03094Z" fill="#BCBDC1"/>
</svg>
