<svg width="103" height="101" viewBox="0 0 103 101" fill="none" xmlns="http://www.w3.org/2000/svg">
<g opacity="0.1">
<path fill-rule="evenodd" clip-rule="evenodd" d="M49.7979 81.6584C55.6143 87.2061 61.9552 92.4384 65.7786 99.656C66.0077 100.085 66.5406 100.247 66.9737 100.017C67.4043 99.7839 67.5712 99.2491 67.3445 98.8176C63.4311 91.4318 56.9759 86.0477 51.0238 80.3718C50.6735 80.0344 50.1109 80.0513 49.7734 80.4072C49.4332 80.7606 49.4477 81.321 49.7979 81.6584Z" fill="black"/>
<path fill-rule="evenodd" clip-rule="evenodd" d="M57.1754 72.4629C60.5923 72.4265 63.7866 72.9757 66.8128 74.5588C67.2449 74.7852 67.7796 74.6157 68.0101 74.1838C68.2381 73.7495 68.0727 73.2138 67.6432 72.9898C64.3528 71.268 60.8875 70.6555 57.1735 70.6941C56.6844 70.6982 56.2879 71.0979 56.2903 71.5878C56.2903 72.075 56.6889 72.4693 57.1754 72.4629Z" fill="black"/>
<path fill-rule="evenodd" clip-rule="evenodd" d="M69.0822 48.9936C72.6021 46.8268 76.3648 46.0484 80.4388 46.719C80.9193 46.7978 81.3778 46.4712 81.4596 45.9882C81.544 45.5076 81.2206 45.0515 80.7401 44.9727C76.2306 44.2315 72.0627 45.0892 68.1653 47.4882C67.7473 47.744 67.616 48.292 67.868 48.7062C68.1223 49.123 68.6668 49.2518 69.0822 48.9936Z" fill="black"/>
<path fill-rule="evenodd" clip-rule="evenodd" d="M43.4102 18.3921C42.3589 18.533 41.3174 18.7678 40.3058 19.106C39.8551 19.2563 38.9606 19.6333 38.406 20.1495C37.8129 20.6976 37.5573 21.3823 37.8333 22.1159C38.2003 23.0897 38.7811 23.5506 39.3964 23.7221C39.9883 23.8878 40.6703 23.7762 41.3589 23.4215C42.6747 22.7433 44.0425 21.1224 44.6549 20.0447C45.705 19.9733 46.7597 20.0016 47.8048 20.1243C55.5884 21.0388 61.3815 28.5715 62.1272 38.4541C62.3875 41.9135 59.9158 46.4366 56.7479 50.8616C51.8162 57.7522 45.0808 64.3334 43.1716 66.3198C42.7012 66.8113 42.4768 67.1527 42.4486 67.2361C42.3045 67.641 42.4517 67.9138 42.5766 68.0801C42.7598 68.3186 42.9727 68.4352 43.1804 68.4895C43.4625 68.5614 43.7805 68.5257 44.1027 68.3178C44.2794 68.2018 44.4815 68.0003 44.6805 67.7707C44.817 67.61 44.9405 67.4112 45.0733 67.3278C45.927 66.7967 46.8072 66.3203 47.6867 65.8342C50.6372 64.1947 53.6872 62.9172 56.8495 61.7466C66.8969 58.0263 77.1864 53.7986 88.0476 53.8768C88.5347 53.8802 88.9388 53.4878 88.9455 52.9985C88.9548 52.5115 88.5652 52.1125 88.0752 52.1071C76.9978 52.0259 66.4955 56.294 56.2484 60.0874C53.5587 61.0835 50.9475 62.1556 48.4087 63.452C51.6562 60.0291 56.018 55.1699 59.2692 50.318C62.1609 46.0031 64.1426 41.6684 63.8898 38.3056C63.0731 27.4795 56.5506 19.3667 48.0257 18.3669C47.1136 18.2603 46.1917 18.2169 45.2729 18.2434C47.0426 10.8623 43.0471 3.6299 35.7914 1.33784C35.326 1.19008 34.828 1.4501 34.6768 1.91518C34.5282 2.38263 34.7817 2.87889 35.2471 3.02666C41.7853 5.0922 45.2927 11.7357 43.4102 18.3921ZM42.2905 20.3843C41.8059 20.4933 41.327 20.6276 40.8516 20.7842C40.5979 20.8696 40.1288 21.0507 39.7626 21.3123C39.6777 21.3744 39.5666 21.4914 39.5164 21.5466C39.6151 21.7995 39.7167 21.9705 39.8842 22.0166C40.0926 22.0754 40.3186 21.9734 40.5598 21.8493C41.1657 21.5386 41.7913 20.9653 42.2905 20.3843Z" fill="black"/>
</g>
</svg>
