<svg width="45" height="45" viewBox="0 0 45 45" fill="none" xmlns="http://www.w3.org/2000/svg">
<g opacity="0.1">
<path fill-rule="evenodd" clip-rule="evenodd" d="M42.6054 14.1614C34.1595 29.8664 17.2879 36.2514 1.61793 27.4098C1.09628 27.1154 0.434756 27.2995 0.140345 27.8147C-0.154065 28.3391 0.029961 29.0015 0.55162 29.296C17.3477 38.7815 35.4622 32.0193 44.5154 15.1919C44.7987 14.6675 44.601 14.0049 44.0738 13.7197C43.5466 13.4437 42.8888 13.637 42.6054 14.1614Z" fill="black"/>
<path d="M14.8049 20.6743C16.5495 20.6743 17.9639 19.26 17.9639 17.5154C17.9639 15.7707 16.5495 14.3564 14.8049 14.3564C13.0602 14.3564 11.6459 15.7707 11.6459 17.5154C11.6459 19.26 13.0602 20.6743 14.8049 20.6743Z" fill="black"/>
<path d="M27.8821 17.3139C29.5926 17.3139 30.9793 15.9273 30.9793 14.2168C30.9793 12.5062 29.5926 11.1196 27.8821 11.1196C26.1715 11.1196 24.7849 12.5062 24.7849 14.2168C24.7849 15.9273 26.1715 17.3139 27.8821 17.3139Z" fill="black"/>
</g>
</svg>
